PathFileType	4	(X/Y/Z)	C:/Users/opensim2020/Desktop/walking_exp_matlab/subject02_walking08_straight_02.trc	
DataRate	CameraRate	NumFrames	NumMarkers	Units	OrigDataRate	OrigDataStartFrame	OrigNumFrames	
100.00	100.00	7	41	mm	100.00	1695	259	
Frame#	Time	LFHD			RFHD			LBHD			RBHD			C7			T10			CLAV			STRN			RBAK			LSHO			LUPA			LELB			LFRM			LWRA			LWRB			LFIN			RSHO			RUPA			RELB			RFRM			RWRA			RWRB			RFIN			LASI			RASI			LPSI			RPSI			LTHI			LKNE			LTIB			LANK			LHEE			LTOE			RTHI			RKNE			RTIB			RANK			RHEE			RTOE			*39			*40			
		X1	Y1	Z1	X2	Y2	Z2	X3	Y3	Z3	X4	Y4	Z4	X5	Y5	Z5	X6	Y6	Z6	X7	Y7	Z7	X8	Y8	Z8	X9	Y9	Z9	X10	Y10	Z10	X11	Y11	Z11	X12	Y12	Z12	X13	Y13	Z13	X14	Y14	Z14	X15	Y15	Z15	X16	Y16	Z16	X17	Y17	Z17	X18	Y18	Z18	X19	Y19	Z19	X20	Y20	Z20	X21	Y21	Z21	X22	Y22	Z22	X23	Y23	Z23	X24	Y24	Z24	X25	Y25	Z25	X26	Y26	Z26	X27	Y27	Z27	X28	Y28	Z28	X29	Y29	Z29	X30	Y30	Z30	X31	Y31	Z31	X32	Y32	Z32	X33	Y33	Z33	X34	Y34	Z34	X35	Y35	Z35	X36	Y36	Z36	X37	Y37	Z37	X38	Y38	Z38	X39	Y39	Z39	X40	Y40	Z40	X41	Y41	Z41	

227	2.260	1481.84412	-875.48901	1725.55383	1345.85303	-846.22119	1686.82397	1526.72290	-747.69812	1659.09485	1393.21594	-708.03345	1620.32214	1465.98901	-678.59137	1505.39624	1449.86365	-640.51709	1224.10205	1477.82068	-819.55347	1441.94238	1472.89990	-880.87640	1273.99500	1400.40466	-630.52148	1325.25427	1647.59546	-751.20966	1483.79187	1727.13904	-749.27667	1280.11963	1735.87244	-753.45917	1138.55981	1744.82361	-781.56085	1008.75421	1712.99304	-858.68970	895.39081	1742.77698	-810.51648	889.21088	1746.69751	-840.21362	829.81940	1279.88257	-757.49646	1469.83167	1196.99951	-726.35815	1280.95898	1176.28992	-732.95776	1137.56677	1144.69324	-749.76398	1022.30499	1145.81995	-790.95160	891.07855	1121.41980	-739.94000	894.54047	1110.60925	-768.29034	827.36707	1594.40894	-868.27606	961.76196	1345.56140	-908.29700	973.52332	1491.01331	-671.06775	1008.85590	1374.80554	-682.23792	1013.87024	1644.30591	-744.88074	659.10242	1625.82629	-686.75159	475.78336	1610.82898	-537.30878	357.16949	1580.40759	-413.37894	170.82732	1521.87561	-383.61829	172.28522	1590.12927	-490.37305	32.37553	1264.68665	-899.71655	671.69287	1310.84912	-930.37360	464.62201	1304.97864	-907.31396	276.71732	1341.61365	-901.17871	85.01164	1398.85254	-869.68823	32.63840	1326.21875	-1053.71924	35.11744	1404.24585	-758.81219	1782.90100	-3357.27441	2845.80933	1034.14905 
228	2.270	1480.32483	-883.27008	1727.17590	1344.29053	-853.72375	1688.30835	1525.31799	-755.50659	1660.46912	1391.90991	-715.69989	1621.72485	1464.26978	-686.64001	1506.55664	1447.28748	-649.28467	1225.14417	1476.47485	-827.78088	1443.57129	1471.37781	-889.57263	1275.76855	1397.80322	-639.93982	1325.95752	1646.01013	-758.85132	1485.14453	1725.39990	-756.55261	1281.53613	1733.24219	-759.60718	1139.73767	1742.01624	-787.00031	1009.75818	1710.41687	-863.87335	895.97211	1739.83960	-815.49011	890.01184	1743.26868	-844.90894	830.03796	1278.56018	-765.96777	1471.42139	1194.96704	-735.97797	1282.73877	1173.56384	-743.70642	1139.42639	1141.95508	-761.44745	1024.30615	1143.03723	-804.08130	893.58344	1118.35547	-753.19263	896.56561	1107.45166	-782.37109	829.82251	1591.47839	-876.30634	962.97974	1343.31323	-917.53729	974.78790	1488.39160	-679.18701	1010.24603	1372.23975	-691.49518	1015.59351	1643.25330	-757.93579	658.01166	1626.52856	-704.27222	474.81155	1611.05383	-554.26282	358.99576	1580.42859	-426.21701	176.85628	1521.38660	-396.78018	179.58351	1589.93176	-496.75912	35.38679	1263.71631	-905.34393	672.00977	1309.70996	-933.57678	464.71878	1304.54370	-909.18835	276.80014	1341.38062	-901.38080	85.05824	1398.74426	-869.55853	32.64317	1326.31055	-1053.62903	35.31238	1402.83191	-766.31805	1784.29944	-3360.17749	2845.17700	1034.05090 
229	2.280	1478.88965	-890.91620	1728.69421	1342.85999	-861.21021	1689.79932	1523.96655	-763.28326	1661.79260	1390.58105	-723.36804	1623.00940	1462.48608	-694.67944	1507.67859	1444.70117	-657.80804	1226.37402	1475.25598	-835.82996	1445.11389	1470.14063	-898.19617	1277.46167	1396.22998	-647.76898	1327.40564	1644.47705	-766.40735	1486.47302	1723.46545	-763.73553	1282.69495	1730.83130	-765.86890	1140.86804	1739.20422	-792.69055	1010.54712	1707.98694	-869.25562	896.59174	1737.05237	-820.65985	890.78967	1740.33618	-849.42175	830.62781	1277.19006	-774.85071	1473.11194	1193.20642	-744.99646	1284.62952	1171.30591	-753.74896	1141.12891	1139.24426	-773.61749	1026.40735	1140.42017	-817.52411	896.12628	1115.38220	-766.80841	898.55914	1104.41052	-796.93042	832.37195	1589.24426	-883.75446	964.18243	1341.91968	-925.55054	975.02960	1485.70068	-687.08478	1011.59741	1369.63843	-700.61597	1017.47186	1642.53699	-771.04218	656.99316	1627.28662	-721.90320	474.00839	1612.03552	-571.25696	360.61145	1579.44250	-439.28036	182.40256	1520.35828	-410.48392	185.71901	1591.49768	-507.07062	39.86506	1262.44800	-910.76575	672.15851	1308.41309	-936.50238	464.69882	1303.51196	-910.86890	276.89761	1341.12024	-901.53949	85.13409	1398.61267	-869.43475	32.58408	1326.34058	-1053.54346	35.51982	1401.55872	-773.81403	1785.74500	-3357.41235	2845.83716	1034.26819 
230	2.290	1477.49561	-898.42102	1730.05310	1341.56152	-868.83179	1691.38123	1522.80518	-771.05835	1663.05200	1389.38464	-731.08405	1624.27917	1460.78210	-702.63232	1508.76294	1442.20801	-666.19214	1227.61719	1474.13721	-843.97003	1446.55176	1469.08972	-906.52277	1278.93298	1394.23840	-656.76892	1328.52222	1643.00671	-773.77728	1487.67126	1721.94788	-770.91058	1283.92078	1728.67603	-772.21539	1141.94922	1737.10083	-798.33435	1011.62775	1705.55017	-874.74609	897.15247	1734.48560	-826.01599	891.58624	1737.32947	-854.29407	831.04175	1275.81909	-783.90302	1474.65027	1191.24707	-754.53870	1286.73853	1168.06580	-763.90698	1143.26941	1136.14709	-785.91669	1028.58923	1137.82690	-831.32343	898.82715	1112.32263	-780.71173	900.70850	1101.31946	-812.24976	835.04016	1587.64722	-890.65326	965.38031	1340.47961	-934.31403	975.61432	1482.92505	-694.86493	1012.80450	1366.91211	-709.46393	1019.29810	1641.97986	-784.13647	656.58459	1628.04468	-739.59161	473.49167	1613.11340	-588.41553	362.33154	1577.79150	-453.36020	187.10127	1518.30334	-425.33456	190.01219	1593.33435	-520.42255	44.71795	1261.18018	-915.59619	672.49628	1307.18958	-938.96497	464.47931	1303.05444	-912.26831	276.54575	1340.78931	-901.70782	85.12996	1398.46851	-869.27118	32.52191	1326.31714	-1053.41577	35.68361	1400.39246	-781.23212	1786.97571			 
231	2.300	1476.34216	-906.06195	1731.59790	1340.40308	-876.34326	1692.89148	1521.72864	-778.87817	1664.33057	1388.32080	-738.84576	1625.52002	1459.10999	-710.58014	1509.83191	1439.80920	-674.48291	1228.88489	1473.10645	-851.96204	1447.93738	1468.20398	-914.64325	1280.30762	1391.06433	-665.91010	1329.41541	1641.68982	-780.97681	1488.81030	1720.10608	-778.15497	1284.85425	1726.66382	-778.64410	1142.89050	1734.84570	-804.25415	1012.54211	1703.22485	-880.48108	897.77759	1732.06970	-831.68866	892.32574	1734.38525	-859.42517	831.45142	1274.66711	-792.88666	1476.24487	1189.20178	-764.31201	1288.56104	1165.03772	-774.72223	1145.18091	1133.38086	-798.28461	1030.88147	1135.44299	-845.03394	901.51691	1109.47107	-794.86084	902.79242	1098.42773	-827.49530	837.76471	1586.76770	-897.37665	966.63104	1339.57629	-942.69928	976.14197	1480.04102	-702.54132	1013.86920	1364.25232	-717.97943	1021.02911	1641.62524	-797.12366	656.89349	1628.71338	-757.17743	473.59741	1613.47583	-605.34955	364.50443	1575.83252	-468.59702	190.96075	1515.76575	-440.96036	192.51370	1595.35083	-536.36566	49.59093	1259.77393	-920.32220	672.79858	1306.03748	-941.23999	464.36246	1302.00330	-914.06689	276.62540	1340.42212	-901.98578	85.19994	1398.30029	-869.11139	32.47987	1326.39563	-1053.23755	35.69419	1399.37549	-788.67346	1788.36499			 
232	2.310	1475.25854	-913.71838	1733.15601	1339.31055	-883.94684	1694.34045	1520.72949	-786.66760	1665.58582	1387.44141	-746.57794	1626.66272	1458.25964	-717.53461	1511.33325	1437.44177	-682.58429	1230.21094	1472.20935	-859.89862	1449.24451	1467.58179	-922.64032	1281.55542	1389.55310	-673.41034	1331.21960	1640.48340	-788.03436	1489.94238	1718.76038	-784.86328	1286.06689	1724.96021	-785.18951	1143.82422	1732.65723	-810.52777	1013.24725	1700.97424	-886.23798	898.40112	1729.89026	-837.46375	893.11206	1731.61694	-864.81494	831.90961	1273.37219	-802.21283	1477.64404	1187.06750	-774.48425	1290.52466	1162.14941	-785.47656	1147.04236	1130.52148	-810.58069	1032.92383	1133.22864	-859.20862	904.42841	1106.71338	-809.17712	904.84741	1095.74829	-842.89392	840.47272	1586.33008	-903.86273	967.86176	1338.88879	-950.65051	976.31964	1477.09485	-710.08246	1014.83899	1361.57776	-726.12927	1022.63287	1641.33435	-809.80090	657.75720	1629.20203	-774.50629	474.15588	1612.68762	-622.42554	366.76782	1573.96667	-484.98853	193.54218	1513.60303	-457.45789	193.76379	1597.67236	-554.39630	53.82943	1258.55457	-924.87994	673.29877	1304.97742	-943.03772	464.14658	1301.42261	-915.54688	276.43832	1340.13220	-902.03455	85.14626	1398.20959	-868.98199	32.44367	1326.17114	-1052.96069	35.73576	1398.42346	-796.10944	1789.70068	-3356.81616	2846.00635	1033.98230 
233	2.320	1474.27002	-921.39929	1734.60168	1338.36719	-891.51477	1695.84949	1519.92932	-794.48419	1666.83386	1386.59680	-754.33398	1627.92493	1456.01294	-726.57581	1512.28503	1435.20276	-690.56409	1231.58069	1471.39490	-867.76440	1450.54395	1467.13025	-930.44116	1282.64539	1386.33826	-682.75348	1332.35510	1639.32800	-794.97504	1490.99426	1717.40320	-791.55835	1287.00012	1723.43884	-791.75012	1144.73364	1731.30212	-816.71051	1014.24866	1698.82544	-892.21814	899.03278	1727.94727	-843.48456	893.84961	1728.94885	-870.43719	832.29657	1272.24622	-811.56195	1479.13025	1184.94373	-784.70331	1292.57910	1159.30835	-795.84253	1148.86304	1128.08167	-822.64502	1034.95081	1131.03442	-873.43555	907.35712	1104.06433	-823.72284	907.01410	1093.13928	-859.00452	843.66412	1586.47046	-910.53033	969.32416	1338.27905	-958.65582	976.78070	1474.17163	-717.50366	1015.76929	1358.92505	-734.02380	1024.15454	1641.12122	-822.33478	658.96881	1629.55176	-791.52734	475.24069	1611.10083	-639.62543	368.56546	1572.49451	-502.39301	195.03337	1511.70947	-475.00079	193.83443	1600.14258	-574.01917	57.45327	1257.33044	-929.16876	673.66718	1303.90051	-944.79840	463.95050	1300.88306	-916.69336	276.32596	1339.98462	-902.11731	85.12569	1398.21375	-868.95703	32.42803	1326.11865	-1052.83850	35.82678	1397.65649	-803.61017	1791.00793	-3356.92480	2846.00977	1033.90967 
